<svg width="126" height="52" viewBox="0 0 126 52" fill="none" xmlns="http://www.w3.org/2000/svg">
<path opacity="0.923" fill-rule="evenodd" clip-rule="evenodd" d="M52.0181 0.966617C54.1779 0.951453 56.3377 0.966617 58.4975 1.01257C58.946 1.14491 59.3904 1.28277 59.8301 1.42615C59.8522 1.47118 59.8825 1.50932 59.922 1.54103C60.2906 1.63339 60.643 1.77125 60.979 1.9546C61.3144 2.16874 61.6512 2.38334 61.9899 2.59794C62.0648 2.62046 62.1416 2.62827 62.2197 2.62092C62.2197 2.68204 62.2197 2.74361 62.2197 2.80473C62.3915 2.86815 62.545 2.96786 62.6792 3.10342C62.7491 3.14984 62.8258 3.17281 62.909 3.17235C63.0344 3.39706 63.2182 3.57306 63.4604 3.70081C63.6382 3.86302 63.7991 4.03948 63.9429 4.22927C63.9149 3.28126 63.9149 2.33142 63.9429 1.38019C63.9893 1.29932 64.0583 1.24555 64.1497 1.21936C65.6202 1.18857 67.0907 1.18857 68.5612 1.21936C68.7068 1.24233 68.7909 1.32643 68.8139 1.4721C68.8447 4.79587 68.8447 8.1201 68.8139 11.4439C67.91 12.3937 67.0213 13.3587 66.1486 14.3389C65.6151 14.8724 65.0789 15.4087 64.5403 15.9472C64.4502 16.2901 64.2283 16.4431 63.874 16.4068C63.8914 16.109 63.9452 15.8181 64.0348 15.5337C64.0991 14.4092 64.0532 13.2907 63.897 12.1791C63.851 12.1332 63.805 12.0872 63.7591 12.0413C63.7439 11.8882 63.7283 11.7347 63.7131 11.5817C63.6052 11.1925 63.4825 10.8097 63.3455 10.4329C63.1341 10.1508 62.9655 9.84425 62.84 9.51385C62.5878 9.19264 62.358 8.8558 62.1507 8.50288C61.575 7.95788 61.0005 7.41426 60.4275 6.87156C60.2226 6.74519 60.0236 6.61514 59.8301 6.48096C57.6414 5.41623 55.3511 5.18647 52.9602 5.79167C52.9064 5.8151 52.8683 5.85324 52.8453 5.90655C52.6757 5.93228 52.5075 5.96307 52.3398 5.99845C52.0839 6.11701 51.8238 6.22408 51.5586 6.32012C51.2792 6.53702 50.9727 6.72083 50.6396 6.87156C50.4015 7.11005 50.141 7.32419 49.8584 7.5149C49.7458 7.69457 49.5923 7.83243 49.3988 7.92847C48.7399 8.62604 48.2192 9.41459 47.8364 10.295C47.8024 10.3313 47.7638 10.3617 47.7216 10.387C47.4541 11.113 47.2243 11.8483 47.0323 12.5927C46.5456 15.9744 47.5488 18.8005 50.0422 21.071C50.6552 21.5622 51.3137 21.9758 52.0181 22.3117C52.1854 22.297 52.3076 22.3586 52.3858 22.4955C52.769 22.598 53.1518 22.7051 53.5346 22.8172C53.9518 22.8535 54.3654 22.9151 54.7753 23.001C55.1429 23.0318 55.5106 23.0318 55.8782 23.001C56.3795 22.9132 56.885 22.8521 57.3946 22.8172C57.828 22.7175 58.2572 22.6099 58.6813 22.4955C59.2387 22.1785 59.8053 21.8719 60.3816 21.5765C60.7115 21.3426 61.0332 21.0976 61.3466 20.8412C65.3105 16.6627 69.2702 12.4888 73.2254 8.31907C74.1587 7.26491 75.1237 6.23879 76.1204 5.24023C76.1664 5.16349 76.2123 5.08721 76.2583 5.01047C76.681 4.57254 77.1176 4.15115 77.5679 3.74676C77.7669 3.60891 77.9663 3.47105 78.1653 3.33319C78.2039 3.28678 78.2191 3.23301 78.2113 3.17235C78.5486 2.99727 78.8702 2.79049 79.1763 2.55199C79.5963 2.37186 79.9942 2.15726 80.371 1.90865C80.701 1.75747 81.0378 1.63523 81.382 1.54103C81.4128 1.49507 81.4431 1.44912 81.4739 1.40317C81.581 1.388 81.6885 1.37238 81.7956 1.35722C82.131 1.23728 82.4679 1.1224 82.8065 1.01257C85.089 0.951453 87.371 0.951453 89.6535 1.01257C89.9922 1.1224 90.329 1.23728 90.6645 1.35722C90.7863 1.38019 90.9085 1.38755 91.0321 1.38019C91.0243 1.44085 91.0395 1.49462 91.0781 1.54103C91.459 1.63891 91.8266 1.77677 92.1809 1.9546C92.2921 2.06305 92.4148 2.15496 92.5486 2.23032C92.8371 2.34382 93.1129 2.48168 93.3757 2.6439C93.6119 2.86171 93.8725 3.04552 94.1569 3.19533C95.2469 4.079 96.2275 5.08215 97.0979 6.20524C97.4701 6.78103 97.8299 7.36325 98.1778 7.95145C98.3244 8.28415 98.4622 8.62144 98.5914 8.96241C98.7724 8.90405 98.8951 8.78136 98.959 8.59479C100.134 7.44091 101.267 6.24614 102.359 5.01047C102.795 4.55967 103.247 4.12312 103.715 3.70081C104.156 3.32676 104.616 2.9743 105.094 2.6439C105.376 2.48858 105.667 2.35072 105.967 2.23032C106.089 2.13841 106.212 2.04651 106.334 1.9546C106.693 1.78917 107.061 1.65131 107.437 1.54103C107.498 1.51024 107.544 1.46429 107.575 1.40317C108.02 1.27312 108.464 1.14262 108.908 1.01257C111.175 0.951453 113.442 0.951453 115.709 1.01257C116.175 1.13113 116.634 1.26899 117.087 1.42615C117.109 1.47118 117.14 1.50932 117.179 1.54103C117.562 1.64534 117.929 1.79101 118.282 1.97758C118.657 2.24503 119.056 2.47479 119.477 2.66687C119.978 2.98624 120.453 3.33824 120.901 3.72379C121.349 4.14793 121.785 4.57713 122.211 5.01047C122.612 5.48746 122.995 5.97778 123.36 6.48096C123.536 6.80309 123.735 7.10913 123.957 7.40002C124.115 7.70101 124.261 8.00705 124.394 8.31907C124.428 8.35538 124.466 8.3857 124.509 8.41098C124.654 8.82088 124.791 9.23445 124.922 9.65171C124.968 9.71282 125.014 9.71282 125.06 9.65171C125.089 9.75326 125.081 9.85298 125.037 9.9504C125.073 10.0602 125.126 10.1599 125.198 10.2491C125.234 10.6158 125.318 10.9683 125.451 11.306C125.512 13.2668 125.512 15.2272 125.451 17.188C125.315 17.5115 125.23 17.8483 125.198 18.1989C125.156 18.2371 125.125 18.283 125.106 18.3368C125.091 18.4747 125.075 18.6125 125.06 18.7504C125.014 18.6893 124.968 18.6893 124.922 18.7504C124.868 19.0036 124.791 19.2485 124.693 19.4856C124.172 20.5889 123.559 21.6307 122.854 22.6104C122.249 23.2459 121.645 23.8819 121.039 24.5175C120.481 24.9577 119.914 25.3864 119.339 25.8041C119.054 25.9268 118.794 26.0877 118.558 26.2866C118.193 26.4461 117.825 26.5918 117.455 26.7232C117.394 26.754 117.348 26.7999 117.317 26.861C116.743 27.0283 116.161 27.1662 115.571 27.2746C115.509 27.31 115.471 27.3638 115.456 27.4355C115.43 27.4116 115.4 27.3959 115.364 27.3895C114.98 27.412 114.605 27.481 114.238 27.5963C113.633 27.6354 113.028 27.674 112.423 27.7112C111.757 27.6744 111.091 27.6363 110.424 27.5963C110.234 27.5788 110.05 27.5329 109.873 27.4584C109.658 27.4433 109.444 27.4276 109.229 27.4125C109.199 27.3514 109.153 27.3054 109.092 27.2746C108.954 27.2595 108.816 27.2438 108.678 27.2287C108.229 27.1234 107.784 27.0007 107.345 26.861C107.32 26.8188 107.29 26.7802 107.253 26.7462C105.932 26.2848 104.753 25.5877 103.715 24.6553C103.669 24.6245 103.623 24.6245 103.577 24.6553C103.623 28.3361 103.638 32.0197 103.623 35.707C102.015 35.707 100.406 35.707 98.7981 35.707C98.76 30.194 98.737 24.6797 98.7292 19.1639C98.0087 20.8945 96.9977 22.4418 95.6963 23.8052C94.7037 24.7661 93.6087 25.6006 92.4107 26.3096C92.0633 26.4603 91.7108 26.5982 91.3538 26.7232C91.3078 26.7691 91.2619 26.8151 91.2159 26.861C90.6443 27.037 90.062 27.1749 89.4697 27.2746C89.4086 27.3206 89.347 27.3665 89.2859 27.4125C89.0869 27.4276 88.8875 27.4433 88.6885 27.4584C88.5148 27.5425 88.331 27.5885 88.1371 27.5963C87.5094 27.6372 86.8812 27.6753 86.253 27.7112C85.64 27.6767 85.0275 27.6386 84.4149 27.5963C84.2054 27.5912 84.0064 27.5453 83.8175 27.4584C83.6029 27.4433 83.3888 27.4276 83.1742 27.4125C83.1131 27.3665 83.0515 27.3206 82.9904 27.2746C82.4017 27.1662 81.8195 27.0283 81.2442 26.861C81.2134 26.7999 81.1674 26.754 81.1063 26.7232C80.7281 26.6106 80.3605 26.4727 80.0034 26.3096C79.6119 26.0376 79.1983 25.8156 78.7627 25.6433C78.7705 25.5826 78.7553 25.5289 78.7167 25.4825C78.5251 25.3483 78.3261 25.226 78.1194 25.1148C77.9539 24.9016 77.7545 24.7481 77.522 24.6553C77.5537 24.7045 77.5767 24.7578 77.5909 24.8161C77.6286 28.4469 77.6208 32.0772 77.5679 35.707C75.9444 35.707 74.3204 35.707 72.6969 35.707C72.6891 29.4422 72.6969 23.177 72.7199 16.9123C72.8499 16.8125 72.9805 16.7133 73.1105 16.6136C73.9781 15.7689 74.8204 14.9037 75.6379 14.0172C76.1581 13.52 76.6714 13.0145 77.1773 12.5008C77.2688 12.3942 77.3225 12.2719 77.3382 12.1332C78.0325 11.9576 78.1782 12.1874 77.7747 12.8225C77.7402 13.0311 77.7481 13.2379 77.7977 13.4428C77.7177 13.7208 77.6718 14.0044 77.6598 14.2929C77.7145 14.65 77.7605 15.0103 77.7977 15.3728C77.7789 15.4252 77.7637 15.479 77.7517 15.5337C77.8873 15.9381 77.987 16.3516 78.0504 16.7744C78.1331 16.8668 78.1561 16.9665 78.1194 17.0731C78.3307 17.5303 78.5224 17.9977 78.6938 18.4747C79.1556 19.3602 79.7452 20.1487 80.463 20.8412C81.3237 21.5622 82.2735 22.1137 83.312 22.4955C85.2448 23.0162 87.1748 23.0162 89.1021 22.4955C89.1329 22.4496 89.1632 22.4036 89.194 22.3577C89.4481 22.292 89.693 22.2001 89.9292 22.082C90.5992 21.7001 91.227 21.2479 91.8133 20.7263C92.1047 20.4272 92.3882 20.1211 92.6634 19.8073C92.8532 19.4985 93.0678 19.2076 93.3068 18.9342C93.4207 18.6378 93.5434 18.3469 93.6744 18.0611C93.7355 18.0303 93.7815 17.9843 93.8123 17.9232C94.0962 17.0906 94.326 16.2482 94.5016 15.3958C94.5323 14.5994 94.5323 13.8026 94.5016 13.0063C94.4142 12.7379 94.3683 12.4622 94.3637 12.1791C94.2975 12.0978 94.2516 12.0059 94.2258 11.9034C94.1477 11.5477 94.0558 11.1957 93.9501 10.8465C93.3968 9.52763 92.5927 8.38616 91.5376 7.42299C91.34 7.3173 91.1718 7.17944 91.0321 7.00942C90.6801 6.78011 90.3125 6.58849 89.9292 6.43501C89.9292 6.38905 89.9292 6.3431 89.9292 6.29715C89.5074 6.15607 89.0787 6.02557 88.6426 5.90655C88.6021 5.83394 88.541 5.78799 88.4587 5.76869C86.9276 5.43599 85.396 5.43599 83.8635 5.76869C83.3745 5.95204 82.8842 6.13585 82.393 6.32012C80.9919 7.26078 79.7282 8.371 78.6019 9.65171C73.6174 14.5903 68.6466 19.5458 63.6902 24.5175C63.4912 24.6553 63.2918 24.7932 63.0928 24.931C63.0542 24.9774 63.039 25.0312 63.0468 25.0919C62.7504 25.2022 62.4899 25.3703 62.2656 25.5973C61.1352 26.3275 59.9253 26.8712 58.6354 27.2287C58.4975 27.2438 58.3596 27.2595 58.2218 27.2746C58.191 27.3206 58.1607 27.3665 58.1299 27.4125C57.9153 27.4276 57.7011 27.4433 57.4865 27.4584C57.3418 27.532 57.1888 27.5779 57.027 27.5963C55.7863 27.7484 54.5456 27.7484 53.3048 27.5963C52.9795 27.48 52.6426 27.4189 52.2939 27.4125C52.2084 27.3812 52.1316 27.3353 52.0641 27.2746C51.5219 27.1721 50.986 27.0416 50.4557 26.884C50.3799 26.8482 50.3188 26.7949 50.2719 26.7232C49.896 26.5968 49.5284 26.4433 49.1691 26.2637C48.1342 25.6612 47.1692 24.9568 46.274 24.1498C45.6394 23.4688 45.0191 22.7722 44.413 22.059C44.1648 21.7038 43.935 21.3361 43.7237 20.9561C43.6469 20.7875 43.5706 20.6193 43.4939 20.4506C43.4479 20.4198 43.402 20.3895 43.356 20.3587C43.2113 19.9796 43.0734 19.5964 42.9425 19.2099C42.8965 19.1639 42.8506 19.118 42.8046 19.072C42.6773 18.6718 42.5468 18.2738 42.414 17.8773C42.3529 15.411 42.3529 12.9451 42.414 10.4789C42.5422 10.0446 42.6801 9.61586 42.8276 9.19218C42.9043 9.17701 42.9503 9.13106 42.9654 9.05432C43.1028 8.70416 43.2329 8.35216 43.356 7.9974C43.402 7.96661 43.4479 7.93629 43.4939 7.9055C43.6722 7.52776 43.8712 7.16014 44.0913 6.80263C44.3799 6.37619 44.6864 5.96261 45.0103 5.5619C45.3564 5.18555 45.701 4.81011 46.0443 4.43606C46.5236 4.0427 46.9831 3.62912 47.4229 3.19533C47.6448 3.04598 47.8746 2.90812 48.1122 2.78175C48.1429 2.7358 48.1733 2.68985 48.2041 2.6439C48.4899 2.49317 48.7812 2.35531 49.0772 2.23032C49.1999 2.13841 49.3221 2.04651 49.4448 1.9546C49.7959 1.77493 50.1635 1.63707 50.5477 1.54103C50.5784 1.49507 50.6088 1.44912 50.6396 1.40317C50.9998 1.28461 51.3675 1.19271 51.7424 1.12745C51.8582 1.10034 51.9501 1.04703 52.0181 0.966617ZM111.849 5.51595C114.755 5.43048 117.099 6.51772 118.88 8.7786C119.646 9.88285 120.174 11.0776 120.465 12.3629C120.719 14.0462 120.611 15.7005 120.143 17.3258C120.007 17.4453 119.946 17.5983 119.959 17.7854C119.26 19.2963 118.242 20.5448 116.904 21.5305C116.482 21.8246 116.037 22.0852 115.571 22.3117C115.416 22.3034 115.293 22.3567 115.203 22.4726C114.068 22.8241 112.904 22.9541 111.711 22.8631C109.17 22.7469 107.11 21.6978 105.53 19.7154C105.214 19.2347 104.923 18.7449 104.657 18.2449C104.589 18.0781 104.52 17.9099 104.45 17.7394C104.46 17.7123 104.475 17.6893 104.496 17.6705C104.356 17.3938 104.226 17.1108 104.106 16.8203C104.147 16.6191 104.101 16.4353 103.968 16.2689C103.693 14.8398 103.716 13.4152 104.037 11.9953C103.853 12.0458 103.669 12.0996 103.485 12.1561C103.381 12.2278 103.328 12.3271 103.324 12.4548C102.077 13.702 100.829 14.9505 99.5793 16.2C99.5371 16.217 99.4989 16.24 99.4645 16.2689C99.4337 15.8094 99.4337 15.3499 99.4645 14.8903C101.919 12.3744 104.409 9.88515 106.932 7.42299C107.204 7.28881 107.434 7.105 107.621 6.87156C107.934 6.72267 108.225 6.53886 108.494 6.32012C109.129 6.05911 109.773 5.84451 110.424 5.67678C110.904 5.61061 111.38 5.55685 111.849 5.51595Z" fill="#008145"/>
<path opacity="0.809" fill-rule="evenodd" clip-rule="evenodd" d="M72.7902 1.19825C74.3066 1.19044 75.8231 1.19825 77.3395 1.22123C77.4544 1.27499 77.5385 1.35908 77.5923 1.47397C77.6231 1.76485 77.6231 2.05619 77.5923 2.34707C77.4962 2.4932 77.3887 2.63106 77.2706 2.76065C77.2485 2.8043 77.2407 2.85025 77.2476 2.8985C77.0418 2.98857 76.8658 3.12643 76.7192 3.31208C76.523 3.53909 76.324 3.76885 76.1218 4.00137C75.0699 5.03761 74.036 6.08717 73.02 7.14914C72.9097 7.18636 72.8022 7.17901 72.6983 7.12617C72.7029 5.55458 72.6877 3.98437 72.6523 2.416C72.6886 2.0424 72.7116 1.66697 72.7213 1.29015C72.7544 1.26534 72.7773 1.23455 72.7902 1.19825Z" fill="#008145"/>
<path opacity="0.786" fill-rule="evenodd" clip-rule="evenodd" d="M98.8918 1.19825C100.408 1.19044 101.925 1.19825 103.441 1.22123C103.67 1.38849 103.778 1.61826 103.763 1.91052C103.74 2.14672 103.671 2.36867 103.556 2.57683C102.095 4.10798 100.617 5.62443 99.1216 7.12617C98.9686 7.18728 98.8151 7.18728 98.662 7.12617C98.6009 6.72776 98.6009 6.3298 98.662 5.93139C98.6993 6.01962 98.7222 6.11153 98.731 6.20711C98.8151 5.62581 98.8151 5.04358 98.731 4.4609C98.7232 4.63139 98.7002 4.80003 98.662 4.96638C98.6009 3.81756 98.6009 2.66874 98.662 1.51992C98.6997 1.65548 98.7227 1.79334 98.731 1.93349C98.7278 1.6734 98.7811 1.42801 98.8918 1.19825Z" fill="#008145"/>
<path opacity="0.992" fill-rule="evenodd" clip-rule="evenodd" d="M12.2235 1.4712C14.13 1.36184 15.9682 1.66053 17.7378 2.36728C19.5033 3.14481 20.8511 4.37772 21.7816 6.06649C23.2103 4.09511 25.0944 2.75513 27.4338 2.04561C30.2884 1.22719 33.1223 1.28877 35.9351 2.22943C38.7874 3.42833 40.5874 5.53435 41.3346 8.54794C41.5538 9.45459 41.6916 10.3736 41.7482 11.3051C41.7711 16.5129 41.7789 21.7212 41.7711 26.9291C40.2395 26.9291 38.7075 26.9291 37.1758 26.9291C37.1837 21.997 37.1758 17.0644 37.1529 12.1323C37.1074 10.6011 36.6786 9.19174 35.8662 7.9046C34.8502 6.59586 33.5097 5.85281 31.8453 5.67589C30.2756 5.47967 28.7591 5.67865 27.296 6.27328C25.5594 7.12202 24.372 8.46201 23.7346 10.2941C23.3817 11.3998 23.1979 12.533 23.1832 13.6947C23.1602 18.1061 23.1524 22.5176 23.1602 26.9291C21.6286 26.9291 20.0966 26.9291 18.5649 26.9291C18.5728 21.9354 18.5649 16.9421 18.542 11.9485C18.4758 10.3098 17.9552 8.83928 16.9796 7.53698C15.9727 6.44468 14.7242 5.82432 13.2344 5.67589C11.2796 5.41671 9.4571 5.78434 7.76603 6.77876C6.06623 8.02408 5.06308 9.70136 4.75612 11.8106C4.69133 12.1911 4.64537 12.5743 4.61826 12.9594C4.59528 17.6158 4.58747 22.2727 4.59528 26.9291C3.06368 26.9291 1.53161 26.9291 0 26.9291C0 18.5197 0 10.1103 0 1.70097C1.47049 1.70097 2.94098 1.70097 4.41147 1.70097C4.40366 2.91137 4.41147 4.1213 4.43445 5.33124C5.89069 3.44166 7.79774 2.2547 10.1556 1.7699C10.8458 1.62882 11.5351 1.5291 12.2235 1.4712Z" fill="#008145"/>
<path opacity="0.796" fill-rule="evenodd" clip-rule="evenodd" d="M68.6082 21.0938C68.6877 21.1222 68.7566 21.1682 68.815 21.2316C68.8366 22.9585 68.8444 24.6817 68.838 26.4013C68.8035 26.6063 68.7805 26.813 68.769 27.0217C68.7272 26.9688 68.6886 26.9762 68.6542 27.0446C67.1841 27.1081 65.7136 27.1232 64.2427 27.0906C64.1067 27.0727 64.0074 27.0037 63.944 26.8838C63.9132 26.5313 63.9132 26.1794 63.944 25.8269C64.0359 25.6739 64.1278 25.5204 64.2197 25.3674C65.5505 24.0504 66.8831 22.7333 68.2176 21.4154C68.2401 21.3561 68.2479 21.2946 68.2406 21.2316C68.3936 21.2537 68.5163 21.2077 68.6082 21.0938Z" fill="#008145"/>
<path opacity="0.905" fill-rule="evenodd" clip-rule="evenodd" d="M73.165 42.9609C73.3823 42.9609 73.6003 42.9609 73.8176 42.9609C73.8065 43.8314 73.8176 44.7013 73.8502 45.5711C74.1119 45.1848 74.4708 44.9342 74.9269 44.8207C76.6522 44.5832 77.5873 45.3225 77.7329 47.0393C77.6232 48.749 76.7097 49.5105 74.9922 49.3233C74.5054 49.2273 74.1249 48.9768 73.8502 48.5728C73.8176 48.811 73.8065 49.0505 73.8176 49.2906C73.6003 49.2906 73.3823 49.2906 73.165 49.2906C73.165 47.1809 73.165 45.0706 73.165 42.9609ZM74.9922 45.3754C76.0375 45.2174 76.7227 45.6305 77.0477 46.6152C77.2408 47.8844 76.7084 48.6022 75.4489 48.7686C74.4375 48.6635 73.8933 48.0978 73.8176 47.072C73.858 46.2485 74.2496 45.6827 74.9922 45.3754Z" fill="#008145"/>
<path opacity="0.891" fill-rule="evenodd" clip-rule="evenodd" d="M85.8904 43.7445C86.0137 43.7314 86.1116 43.7745 86.184 43.875C86.896 45.321 87.6249 46.7566 88.3701 48.1818C89.0951 46.7573 89.8024 45.3217 90.4908 43.875C90.5457 43.7764 90.6214 43.7438 90.7192 43.7771C90.9613 45.458 91.1897 47.1436 91.4044 48.8343C91.4351 48.9276 91.4892 49.004 91.5675 49.0627C91.7783 49.141 91.9956 49.1736 92.2201 49.1606C92.2201 49.2258 92.2201 49.2911 92.2201 49.3564C91.6472 49.3864 91.0814 49.3433 90.5235 49.2258C90.5809 49.1573 90.6246 49.0816 90.654 48.9975C90.5274 47.8079 90.3858 46.6228 90.2298 45.4411C89.6151 46.7788 88.9521 48.0839 88.2396 49.3564C88.1541 49.3035 88.0777 49.2382 88.0112 49.1606C87.3678 47.9606 86.7589 46.7429 86.184 45.5063C86.0503 46.6365 85.9302 47.7674 85.8251 48.8996C85.8526 48.9759 85.8963 49.0412 85.9557 49.0953C86.1181 49.1293 86.2702 49.1841 86.4124 49.2585C86.1299 49.3329 85.8362 49.3655 85.5315 49.3564C85.2594 49.3348 84.9879 49.3126 84.7158 49.2911C84.8176 49.1847 84.9481 49.1306 85.1073 49.128C85.1857 49.0692 85.2398 48.9929 85.2705 48.8996C85.4747 47.1795 85.6816 45.4613 85.8904 43.7445Z" fill="#008145"/>
<path opacity="0.889" fill-rule="evenodd" clip-rule="evenodd" d="M106.315 43.7431C106.886 43.7229 107.451 43.7666 108.011 43.8736C108.005 44.2044 107.962 44.5307 107.881 44.8524C107.786 44.6651 107.677 44.4805 107.555 44.2977C106.954 43.9532 106.399 44.0074 105.891 44.4609C105.75 44.7761 105.772 45.0801 105.956 45.3744C106.372 45.751 106.818 46.0883 107.294 46.3859C107.546 46.6162 107.774 46.8668 107.979 47.1363C108.429 48.2913 108.07 49.0418 106.902 49.3876C106.467 49.4313 106.032 49.4313 105.597 49.3876C105.388 49.3615 105.203 49.2858 105.042 49.1592C104.991 48.782 105.023 48.412 105.14 48.0499C105.23 48.3481 105.382 48.6202 105.597 48.8656C106.26 49.2297 106.858 49.154 107.391 48.6372C107.609 48.3109 107.609 47.9846 107.391 47.6584C106.94 47.2068 106.45 46.8042 105.923 46.4511C105.162 45.8567 104.999 45.1278 105.434 44.2651C105.688 44.0139 105.981 43.8397 106.315 43.7431Z" fill="#008145"/>
<path opacity="0.889" fill-rule="evenodd" clip-rule="evenodd" d="M108.926 43.7422C110.445 43.8929 111.967 43.9145 113.494 43.8074C113.505 44.1344 113.494 44.4606 113.461 44.7863C113.434 44.8163 113.402 44.8378 113.363 44.8515C113.29 44.7295 113.235 44.599 113.2 44.46C113.092 44.3804 112.973 44.3262 112.841 44.2969C112.385 44.2642 111.928 44.2531 111.471 44.2642C111.452 45.8316 111.485 47.3977 111.569 48.9626C111.741 49.1276 111.948 49.1929 112.188 49.1583C112.188 49.2236 112.188 49.2888 112.188 49.3541C111.535 49.3756 110.882 49.3541 110.231 49.2888C110.31 49.1864 110.419 49.1322 110.557 49.1257C110.648 49.0493 110.703 48.9515 110.72 48.832C110.753 47.3097 110.764 45.7873 110.753 44.2642C110.203 44.2375 109.66 44.2701 109.121 44.3621C109.02 44.5122 108.911 44.6531 108.795 44.7863C108.728 44.4261 108.772 44.0782 108.926 43.7422Z" fill="#008145"/>
<path opacity="0.891" fill-rule="evenodd" clip-rule="evenodd" d="M119.17 43.7445C119.293 43.7314 119.391 43.7745 119.463 43.875C120.175 45.321 120.904 46.7566 121.649 48.1818C122.374 46.7573 123.082 45.3217 123.77 43.875C123.825 43.7764 123.901 43.7438 123.999 43.7771C124.241 45.458 124.469 47.1436 124.684 48.8343C124.714 48.9276 124.769 49.004 124.847 49.0627C125.058 49.141 125.275 49.1736 125.499 49.1606C125.499 49.2258 125.499 49.2911 125.499 49.3564C124.926 49.3864 124.361 49.3433 123.803 49.2258C123.86 49.1573 123.904 49.0816 123.933 48.9975C123.807 47.8079 123.665 46.6228 123.509 45.4411C122.894 46.7788 122.231 48.0839 121.519 49.3564C121.433 49.3035 121.357 49.2382 121.29 49.1606C120.647 47.9606 120.038 46.7429 119.463 45.5063C119.33 46.6365 119.21 47.7674 119.104 48.8996C119.132 48.9759 119.176 49.0412 119.235 49.0953C119.397 49.1293 119.549 49.1841 119.692 49.2585C119.409 49.3329 119.116 49.3655 118.811 49.3564C118.539 49.3348 118.267 49.3126 117.995 49.2911C118.097 49.1847 118.227 49.1306 118.387 49.128C118.465 49.0692 118.519 48.9929 118.55 48.8996C118.754 47.1795 118.961 45.4613 119.17 43.7445Z" fill="#008145"/>
<path opacity="0.902" fill-rule="evenodd" clip-rule="evenodd" d="M92.5457 43.8086C93.6113 43.8947 94.6769 43.8947 95.7432 43.8086C95.7132 44.1127 95.6806 44.4174 95.6453 44.7222C95.6186 44.7522 95.5859 44.7737 95.5474 44.7874C95.5109 44.5714 95.4019 44.4083 95.2212 44.298C94.7676 44.2177 94.3109 44.1851 93.8508 44.2001C93.8397 44.8749 93.8508 45.5489 93.8834 46.223C93.9748 46.2635 94.0727 46.285 94.1771 46.2883C94.568 46.2465 94.9595 46.2139 95.3517 46.1904C95.5572 45.9496 95.644 45.9822 95.6127 46.2883C95.5898 46.6002 95.5357 46.9049 95.4496 47.2018C95.3895 47.0309 95.3132 46.8677 95.2212 46.7124C94.7689 46.625 94.3122 46.5924 93.8508 46.6145C93.8208 47.3611 93.8534 48.1004 93.9487 48.8332C94.4923 49.0883 95.0358 49.0883 95.5801 48.8332C95.674 48.6668 95.7504 48.4926 95.8085 48.3112C95.9057 48.3666 95.9494 48.4534 95.939 48.5722C95.9187 48.8371 95.8535 49.087 95.7432 49.3226C94.6952 49.333 93.6511 49.3441 92.611 49.3552C92.611 49.29 92.611 49.2247 92.611 49.1595C92.81 49.2012 92.951 49.136 93.0351 48.9637C93.1063 48.1395 93.1389 47.3128 93.133 46.484C93.1402 45.6977 93.1076 44.9147 93.0351 44.1349C92.8557 44.0572 92.671 43.992 92.4805 43.9391C92.504 43.8947 92.5261 43.851 92.5457 43.8086Z" fill="#008145"/>
<path opacity="0.91" fill-rule="evenodd" clip-rule="evenodd" d="M96.8533 43.8086C97.4844 43.8921 98.1147 43.8921 98.7457 43.8086C99.2567 43.8138 99.7356 43.9332 100.181 44.1675C100.615 44.589 100.756 45.1 100.605 45.701C100.422 46.1427 100.151 46.5232 99.7898 46.8429C100.35 47.5777 100.959 48.274 101.617 48.9311C101.931 49.1516 102.268 49.2064 102.628 49.0942C102.705 48.8626 102.748 48.6237 102.759 48.3764C102.803 47.0713 102.803 45.7662 102.759 44.4611C102.737 44.3522 102.715 44.2438 102.694 44.1349C102.524 44.0709 102.361 43.9952 102.204 43.9065C102.814 43.8523 103.423 43.8628 104.031 43.9391C103.815 43.9756 103.652 44.0846 103.542 44.2654C103.498 45.7662 103.498 47.2671 103.542 48.7679C103.56 48.8723 103.592 48.9702 103.64 49.0616C103.806 49.1327 103.98 49.1764 104.162 49.1921C104.192 49.2188 104.213 49.2515 104.227 49.29C103.738 49.3115 103.248 49.3337 102.759 49.3552C102.179 49.3624 101.603 49.3298 101.03 49.2573C100.888 49.1595 100.747 49.0616 100.605 48.9637C100.116 48.3438 99.6267 47.7239 99.1373 47.1039C98.8292 47.0896 98.5245 47.057 98.2237 47.0061C98.1852 47.0198 98.1526 47.0413 98.1258 47.0713C98.1193 47.6801 98.1408 48.2896 98.1911 48.8984C98.2152 48.9585 98.2478 49.0126 98.2889 49.0616C98.4899 49.1203 98.6857 49.1856 98.8762 49.2573C98.2348 49.3533 97.5822 49.3859 96.9186 49.3552C96.9186 49.29 96.9186 49.2247 96.9186 49.1595C97.1176 49.2012 97.2586 49.136 97.3427 48.9637C97.4139 48.1395 97.4465 47.3128 97.4406 46.484C97.4478 45.6977 97.4152 44.9147 97.3427 44.1349C97.1633 44.0572 96.9786 43.992 96.7881 43.9391C96.8116 43.8947 96.8338 43.851 96.8533 43.8086ZM98.55 44.1349C99.2449 44.1238 99.6913 44.45 99.8877 45.1137C100.05 46.5401 99.4629 47.0185 98.1258 46.5493C98.0821 45.7878 98.0821 45.0269 98.1258 44.2654C98.2746 44.2249 98.4155 44.1818 98.55 44.1349Z" fill="#008145"/>
<path opacity="0.902" fill-rule="evenodd" clip-rule="evenodd" d="M114.08 43.8086C115.146 43.8947 116.211 43.8947 117.277 43.8086C117.247 44.1127 117.215 44.4174 117.179 44.7222C117.153 44.7522 117.12 44.7737 117.082 44.7874C117.045 44.5714 116.936 44.4083 116.755 44.298C116.302 44.2177 115.845 44.1851 115.385 44.2001C115.374 44.8749 115.385 45.5489 115.418 46.223C115.509 46.2635 115.607 46.285 115.711 46.2883C116.102 46.2465 116.494 46.2139 116.886 46.1904C117.091 45.9496 117.178 45.9822 117.147 46.2883C117.124 46.6002 117.07 46.9049 116.984 47.2018C116.924 47.0309 116.847 46.8677 116.755 46.7124C116.303 46.625 115.846 46.5924 115.385 46.6145C115.355 47.3611 115.388 48.1004 115.483 48.8332C116.026 49.0883 116.57 49.0883 117.114 48.8332C117.208 48.6668 117.285 48.4926 117.343 48.3112C117.44 48.3666 117.484 48.4534 117.473 48.5722C117.453 48.8371 117.388 49.087 117.277 49.3226C116.229 49.333 115.185 49.3441 114.145 49.3552C114.145 49.29 114.145 49.2247 114.145 49.1595C114.344 49.2012 114.485 49.136 114.569 48.9637C114.64 48.1395 114.673 47.3128 114.667 46.484C114.674 45.6977 114.642 44.9147 114.569 44.1349C114.39 44.0572 114.205 43.992 114.015 43.9391C114.038 43.8947 114.06 43.851 114.08 43.8086Z" fill="#008145"/>
<path opacity="0.896" fill-rule="evenodd" clip-rule="evenodd" d="M77.9949 44.789C78.2305 44.77 78.4589 44.7916 78.6801 44.8542C79.2236 46.0725 79.7679 47.2902 80.3114 48.5085C80.8263 47.283 81.3594 46.0647 81.9102 44.8542C82.1236 44.7896 82.3409 44.7681 82.5627 44.789C81.824 46.637 81.0299 48.4641 80.1809 50.2703C79.7261 50.9509 79.1062 51.1793 78.3212 50.9555C78.0915 50.8733 77.8957 50.7428 77.7339 50.564C77.8507 50.4067 77.9597 50.2436 78.0602 50.0746C78.4817 50.4798 78.9385 50.534 79.4305 50.2377C79.6295 49.9382 79.8031 49.6224 79.9525 49.2915C79.2739 47.7991 78.6213 46.2983 77.9949 44.789Z" fill="#008145"/>
</svg>
